<?xml version="1.0" encoding="UTF-8" standalone="no"?>
<svg
   width="60"
   height="60"
   viewBox="0 0 100 100"
   fill="none"
   version="1.1"
   id="svg2"
   sodipodi:docname="chutes.svg"
   inkscape:version="1.3.2 (091e20e, 2023-11-25, custom)"
   xmlns:inkscape="http://www.inkscape.org/namespaces/inkscape"
   xmlns:sodipodi="http://sodipodi.sourceforge.net/DTD/sodipodi-0.dtd"
   xmlns="http://www.w3.org/2000/svg"
   xmlns:svg="http://www.w3.org/2000/svg">
  <defs
     id="defs2">
    <inkscape:path-effect
       effect="fillet_chamfer"
       id="path-effect2"
       is_visible="true"
       lpeversion="1"
       nodesatellites_param="F,0,0,1,0,25,0,1 @ F,0,0,1,0,25,0,1 @ F,0,0,1,0,25,0,1 @ F,0,0,1,0,25,0,1"
       radius="25"
       unit="px"
       method="auto"
       mode="F"
       chamfer_steps="1"
       flexible="false"
       use_knot_distance="true"
       apply_no_radius="true"
       apply_with_radius="true"
       only_selected="false"
       hide_knots="false" />
  </defs>
  <sodipodi:namedview
     id="namedview2"
     pagecolor="#ffffff"
     bordercolor="#111111"
     borderopacity="1"
     inkscape:showpageshadow="0"
     inkscape:pageopacity="0"
     inkscape:pagecheckerboard="1"
     inkscape:deskcolor="#d1d1d1"
     inkscape:zoom="14.236417"
     inkscape:cx="28.132079"
     inkscape:cy="35.542652"
     inkscape:window-width="2560"
     inkscape:window-height="1377"
     inkscape:window-x="-3"
     inkscape:window-y="1432"
     inkscape:window-maximized="1"
     inkscape:current-layer="svg2" />
  <!-- Black background -->
  <path
     id="rect1"
     style="fill:#000000"
     d="m 25,0 h 50 a 25,25 45 0 1 25,25 V 75 A 25,25 135 0 1 75,100 H 25 A 25,25 45 0 1 0,75 V 25 A 25,25 135 0 1 25,0 Z"
     inkscape:path-effect="#path-effect2"
     inkscape:original-d="M 0,0 H 100 V 100 H 0 Z" />
  <!-- Logo centered with black padding on all sides - NO SCALING -->
  <g
     transform="translate(19, 29.5)"
     id="g2">
    <path
       d="M38.01 39.6943C37.1263 41.1364 35.2525 41.4057 34.0442 40.2642L28.6738 35.1904C27.4656 34.049 27.4843 32.0273 28.7133 30.9115L34.1258 25.9979C40.1431 20.5352 48.069 18.406 55.6129 20.2255L59.6853 21.2078C59.8306 21.2428 59.9654 21.3165 60.0771 21.422C60.6663 21.9787 60.3364 23.0194 59.552 23.078L59.465 23.0845C52.0153 23.6409 45.1812 27.9913 40.9759 34.8542L38.01 39.6943Z"
       fill="#ffffff"
       id="path1" />
    <path
       d="M15.296 36.5912C14.1726 37.8368 12.2763 37.7221 11.2913 36.349L0.547139 21.3709C-0.432786 20.0048 -0.0547272 18.0273 1.34794 17.1822L22.7709 4.27482C29.6029 0.158495 37.7319 -0.277291 44.8086 3.0934L60.3492 10.4956C60.5897 10.6101 60.7997 10.7872 60.9599 11.0106C61.8149 12.2025 60.8991 13.9056 59.5058 13.7148L50.2478 12.4467C42.8554 11.4342 35.4143 14.2848 30.1165 20.1587L15.296 36.5912Z"
       fill="#ffffff"
       id="path2" />
  </g>
</svg>
